<svg width="497" height="94" viewBox="0 0 497 94" fill="none" xmlns="http://www.w3.org/2000/svg">
<path d="M86.4149 34.5801C86.4149 34.5801 89.173 38.4286 91.3306 39.2284C94.5184 40.4102 99.4765 36.0782 99.4765 36.0782C96.6918 33.9602 90.524 33.4617 86.4149 34.5801Z" fill="#BB9CFE"/>
<path d="M73.3365 61.3485C67.3929 64.3416 52.5863 73.5432 52.5863 73.5432C56.6686 72.6117 66.785 70.9246 72.4756 71.2756C72.4756 71.2756 99.1394 71.8426 101.194 71.0986C106.257 70.0351 107.915 66.2251 107.915 66.2251C107.915 66.2251 82.3284 60.1847 73.3365 61.3485Z" fill="#874FFF"/>
<path d="M52.5863 73.5432C52.5863 73.5432 67.3929 64.3416 73.3365 61.3485C69.0871 61.8985 64.5253 59.5998 64.5253 59.5998C64.5253 59.5998 61.6307 56.0608 60.9718 56.5865C60.313 57.1123 36.3333 73.4612 36.3333 73.4612C36.3333 73.4612 37.647 76.442 43.4716 76.0508C45.7977 75.8946 49.9265 74.1501 52.5863 73.5432Z" fill="#874FFF"/>
<path d="M0.952908 68.9773C1.30403 82.1684 2.16406 86.3358 0.0400048 91.7538C-1.21398 94.9525 27.2458 86.0345 52.5863 73.5432C49.9265 74.1501 45.7977 75.8946 43.4716 76.0508C37.647 76.442 36.3333 73.4612 36.3333 73.4612C36.3333 73.4612 60.313 57.1123 60.9718 56.5865C61.6307 56.0608 64.5253 59.5998 64.5253 59.5998C64.5253 59.5998 69.0871 61.8985 73.3365 61.3485C79.3395 58.3255 87.3981 51.5463 87.3981 51.5463C87.3981 51.5463 100.038 43.8767 100.881 39.2284C101.114 37.9402 100.544 36.8902 99.4765 36.0782C99.4765 36.0782 94.5184 40.4102 91.3306 39.2284C89.173 38.4286 86.4149 34.5801 86.4149 34.5801L5.44721 82.1684C5.44721 82.1684 0.601791 55.7863 0.952908 68.9773Z" fill="#874FFF"/>
<path d="M149.997 93.8C145.497 93.8 141.357 92.96 137.577 91.28C133.857 89.6 130.647 87.29 127.947 84.35C125.247 81.41 123.147 77.99 121.647 74.09C120.147 70.13 119.397 65.9 119.397 61.4C119.397 55.7 120.537 50.54 122.817 45.92C125.097 41.3 128.307 37.64 132.447 34.94C136.647 32.18 141.597 30.8 147.297 30.8C152.757 30.8 157.317 31.52 160.977 32.96C164.637 34.34 167.277 36.02 168.897 38C170.037 39.38 170.697 41.24 170.877 43.58C171.057 45.92 171.147 48.11 171.147 50.15H169.347C168.207 44.93 166.047 41 162.867 38.36C159.747 35.72 155.457 34.4 149.997 34.4C146.157 34.4 142.857 35.18 140.097 36.74C137.397 38.24 135.177 40.28 133.437 42.86C131.697 45.44 130.407 48.35 129.567 51.59C128.787 54.77 128.397 58.04 128.397 61.4C128.397 68.6 129.357 74.3 131.277 78.5C133.257 82.7 135.897 85.7 139.197 87.5C142.497 89.3 146.097 90.2 149.997 90.2C153.237 90.2 155.937 89.93 158.097 89.39C160.257 88.79 162.207 88.01 163.947 87.05V71.39C163.947 70.13 164.097 68.9 164.397 67.7C164.697 66.44 165.327 65.3 166.287 64.28C167.307 63.26 168.807 62.45 170.787 61.85C172.767 61.19 175.437 60.86 178.797 60.86V62.66C175.857 62.66 173.997 63.44 173.217 65C172.437 66.5 172.047 68.57 172.047 71.21V88.13C168.807 90.11 165.417 91.55 161.877 92.45C158.337 93.35 154.377 93.8 149.997 93.8ZM187.412 92V60.5C187.412 57.8 187.022 55.64 186.242 54.02C185.522 52.34 183.812 51.5 181.112 51.5H180.212V49.7H187.412C189.692 49.7 191.402 50.03 192.542 50.69C193.742 51.35 194.582 52.37 195.062 53.75C196.082 52.73 197.552 51.65 199.472 50.51C201.452 49.37 203.732 48.8 206.312 48.8C207.212 48.8 208.172 48.92 209.192 49.16C210.212 49.34 211.052 49.67 211.712 50.15C212.372 50.63 212.942 51.2 213.422 51.86C213.902 52.52 214.382 53.3 214.862 54.2L211.262 56.9C210.602 56 209.612 55.34 208.292 54.92C207.032 54.44 205.622 54.2 204.062 54.2C202.262 54.2 200.612 54.62 199.112 55.46C197.612 56.24 196.412 57.32 195.512 58.7C195.512 59 195.512 59.45 195.512 60.05C195.512 60.59 195.512 61.04 195.512 61.4V92H187.412ZM238.142 92.9C233.942 92.9 230.432 91.91 227.612 89.93C224.852 87.95 222.752 85.28 221.312 81.92C219.932 78.56 219.242 74.87 219.242 70.85C219.242 66.77 219.962 63.08 221.402 59.78C222.842 56.42 224.912 53.75 227.612 51.77C230.312 49.79 233.522 48.8 237.242 48.8C241.322 48.8 244.682 49.58 247.322 51.14C250.022 52.64 252.002 54.86 253.262 57.8C254.582 60.74 255.242 64.34 255.242 68.6L255.062 72.2H227.792C227.792 77.12 228.842 81.2 230.942 84.44C233.102 87.68 236.102 89.3 239.942 89.3C242.882 89.3 245.312 88.67 247.232 87.41C249.212 86.15 250.982 84.38 252.542 82.1L254.342 83.45C253.022 85.73 251.522 87.56 249.842 88.94C248.222 90.32 246.422 91.34 244.442 92C242.522 92.6 240.422 92.9 238.142 92.9ZM227.792 68.6H246.692C246.692 63.38 245.912 59.39 244.352 56.63C242.792 53.81 240.422 52.4 237.242 52.4C235.442 52.4 233.822 53.12 232.382 54.56C231.002 55.94 229.892 57.86 229.052 60.32C228.212 62.72 227.792 65.48 227.792 68.6ZM282.088 92.9C277.888 92.9 274.378 91.91 271.558 89.93C268.798 87.95 266.698 85.28 265.258 81.92C263.878 78.56 263.188 74.87 263.188 70.85C263.188 66.77 263.908 63.08 265.348 59.78C266.788 56.42 268.858 53.75 271.558 51.77C274.258 49.79 277.468 48.8 281.188 48.8C285.268 48.8 288.628 49.58 291.268 51.14C293.968 52.64 295.948 54.86 297.208 57.8C298.528 60.74 299.188 64.34 299.188 68.6L299.008 72.2H271.738C271.738 77.12 272.788 81.2 274.888 84.44C277.048 87.68 280.048 89.3 283.888 89.3C286.828 89.3 289.258 88.67 291.178 87.41C293.158 86.15 294.928 84.38 296.488 82.1L298.288 83.45C296.968 85.73 295.468 87.56 293.788 88.94C292.168 90.32 290.368 91.34 288.388 92C286.468 92.6 284.368 92.9 282.088 92.9ZM271.738 68.6H290.638C290.638 63.38 289.858 59.39 288.298 56.63C286.738 53.81 284.368 52.4 281.188 52.4C279.388 52.4 277.768 53.12 276.328 54.56C274.948 55.94 273.838 57.86 272.998 60.32C272.158 62.72 271.738 65.48 271.738 68.6ZM322.073 92.9C318.893 92.9 316.283 91.97 314.243 90.11C312.263 88.25 311.273 85.28 311.273 81.2V53.3H304.973V49.7H311.273V41.6L315.773 36.2H319.373V49.7H330.173V53.3H319.373V81.2C319.373 83.9 319.883 85.94 320.903 87.32C321.983 88.64 323.573 89.3 325.673 89.3C327.233 89.3 328.523 89.12 329.543 88.76C330.563 88.4 331.523 87.98 332.423 87.5L333.323 89.3C332.363 90.02 331.043 90.8 329.363 91.64C327.683 92.48 325.253 92.9 322.073 92.9ZM343.033 92V43.4C343.033 40.7 342.643 38.54 341.863 36.92C341.143 35.24 339.433 34.4 336.733 34.4H334.933V32.6H358.333C359.893 32.6 361.633 32.72 363.553 32.96C365.533 33.14 367.513 33.59 369.493 34.31C371.533 34.97 373.393 35.96 375.073 37.28C376.813 38.6 378.193 40.34 379.213 42.5C380.293 44.66 380.833 47.36 380.833 50.6C380.833 53.66 380.323 56.24 379.303 58.34C378.283 60.38 376.933 62.03 375.253 63.29C373.633 64.55 371.923 65.51 370.123 66.17C368.323 66.77 366.613 67.19 364.993 67.43C363.373 67.61 362.053 67.7 361.033 67.7H351.133V92H343.033ZM351.133 64.55H357.883C359.143 64.55 360.553 64.31 362.113 63.83C363.673 63.35 365.203 62.54 366.703 61.4C368.203 60.26 369.433 58.79 370.393 56.99C371.353 55.13 371.833 52.85 371.833 50.15C371.833 47.45 371.353 45.2 370.393 43.4C369.433 41.54 368.203 40.04 366.703 38.9C365.203 37.76 363.673 36.95 362.113 36.47C360.553 35.99 359.143 35.75 357.883 35.75C356.743 35.75 355.543 35.84 354.283 36.02C353.083 36.2 352.033 36.41 351.133 36.65V64.55ZM406.035 92.9C401.835 92.9 398.265 91.91 395.325 89.93C392.385 87.95 390.135 85.28 388.575 81.92C387.015 78.56 386.235 74.87 386.235 70.85C386.235 66.77 387.015 63.08 388.575 59.78C390.135 56.42 392.385 53.75 395.325 51.77C398.265 49.79 401.835 48.8 406.035 48.8C410.235 48.8 413.805 49.79 416.745 51.77C419.685 53.75 421.935 56.42 423.495 59.78C425.055 63.08 425.835 66.77 425.835 70.85C425.835 74.87 425.055 78.56 423.495 81.92C421.935 85.28 419.685 87.95 416.745 89.93C413.805 91.91 410.235 92.9 406.035 92.9ZM406.035 89.3C408.315 89.3 410.295 88.49 411.975 86.87C413.655 85.19 414.945 82.97 415.845 80.21C416.805 77.39 417.285 74.27 417.285 70.85C417.285 67.37 416.805 64.25 415.845 61.49C414.945 58.73 413.655 56.54 411.975 54.92C410.295 53.24 408.315 52.4 406.035 52.4C403.815 52.4 401.835 53.24 400.095 54.92C398.415 56.54 397.095 58.73 396.135 61.49C395.235 64.25 394.785 67.37 394.785 70.85C394.785 74.27 395.235 77.39 396.135 80.21C397.095 82.97 398.415 85.19 400.095 86.87C401.835 88.49 403.815 89.3 406.035 89.3ZM437.109 92V60.5C437.109 57.8 436.719 55.64 435.939 54.02C435.219 52.34 433.509 51.5 430.809 51.5H429.909V49.7H437.109C439.389 49.7 441.099 50.03 442.239 50.69C443.439 51.35 444.279 52.37 444.759 53.75C445.779 52.73 447.249 51.65 449.169 50.51C451.149 49.37 453.429 48.8 456.009 48.8C456.909 48.8 457.869 48.92 458.889 49.16C459.909 49.34 460.749 49.67 461.409 50.15C462.069 50.63 462.639 51.2 463.119 51.86C463.599 52.52 464.079 53.3 464.559 54.2L460.959 56.9C460.299 56 459.309 55.34 457.989 54.92C456.729 54.44 455.319 54.2 453.759 54.2C451.959 54.2 450.309 54.62 448.809 55.46C447.309 56.24 446.109 57.32 445.209 58.7C445.209 59 445.209 59.45 445.209 60.05C445.209 60.59 445.209 61.04 445.209 61.4V92H437.109ZM484.671 92.9C481.491 92.9 478.881 91.97 476.841 90.11C474.861 88.25 473.871 85.28 473.871 81.2V53.3H467.571V49.7H473.871V41.6L478.371 36.2H481.971V49.7H492.771V53.3H481.971V81.2C481.971 83.9 482.481 85.94 483.501 87.32C484.581 88.64 486.171 89.3 488.271 89.3C489.831 89.3 491.121 89.12 492.141 88.76C493.161 88.4 494.121 87.98 495.021 87.5L495.921 89.3C494.961 90.02 493.641 90.8 491.961 91.64C490.281 92.48 487.851 92.9 484.671 92.9Z" fill="#2B2538"/>
</svg>
